<svg version="1" xmlns="http://www.w3.org/2000/svg" width="416" height="416" viewBox="0 0 312.000000 312.000000"><path d="M18.5 20c-7.1 2.8-11.9 7.1-15.2 13.8L.5 39.5.2 166.9 0 294.2l7.7-9.1 7.8-9.1.1-115.3c0-128.6-.5-119.6 7-124.7l3.7-2.5h129.1c128 0 129.1.1 133 2.1 2.5 1.3 4.7 3.5 6 5.9 2 3.8 2 5.7 2 106.1v102.2l-2.4 3.6c-5.1 7.4 3.9 6.9-125.2 7l-115.8.1-7.6 7.8-7.6 7.7h124.8c118.1-.1 125.2-.2 130.2-1.9 7.3-2.5 12.2-6.7 15.7-13.6l3-5.9.2-106.3c.3-102.2.2-106.5-1.6-111.3-2.8-7.3-7.4-12.5-13.9-15.7l-5.7-2.8-133.5-.2C27.3 18.1 23.4 18.2 18.5 20z"/><path d="M70.8 70.8l-5.8.3.3 3.9c.1 2.2.5 4.1 1 4.1.4.1 2.5.2 4.6.3 2.2 0 4.2.4 4.6.7.3.4.7 8.1.8 17l.2 16.4h8l.5-17 .5-17 4-.1c2.2-.1 4.5-.2 5-.3.6 0 1.1-1.9 1.1-4.1.1-3.8 0-4-3-4.1-1.7 0-6-.1-9.6-.2-3.6-.1-9.1-.1-12.2.1zM102.5 70.8c-.3.3-.5 10.1-.5 21.8v21.3l4.3-.1h4.4v-8.1c.1-4.4.6-8.2 1.1-8.6.6-.3 3.4-.6 6.4-.5h5.3V114h4.2c2.4 0 4.3-.3 4.3-.8.1-1 .1-37.2.1-40.2-.1-2.2-.5-2.5-2.8-2.4-1.6.1-3.5.3-4.3.3-1.3.1-1.6 1.5-1.5 7.3.1 4-.1 7.9-.3 8.5-.3.9-2.5 1.3-6.3 1.3H111l-.1-3.8c-.1-2-.1-5.8 0-8.5.2-3.9-.1-4.7-1.6-4.8-1 0-2.8-.2-4.1-.3-1.2-.2-2.4 0-2.7.2zM140.6 71c-1 .4-1.3 5.1-1.3 21.6l.1 21.1 12-.1 12.1-.1.3-4.3.3-4.2H148v-4c0-2.5.5-4 1.3-4.1.6-.1 3.7-.2 6.7-.3l5.5-.1.3-4.3.3-4.2H148v-8.8l6.3.2c3.4.2 6.9 0 7.7-.3 1.8-.7 2.3-8 .6-8.2-4.4-.4-20.9-.3-22 .1zM66.4 124.7c-.7.5-1 8-.8 21.8.1 11.5.2 21.2.3 21.5.1.5 3.6.5 7.6.1.6-.1.9-4.6.9-11.7l-.2-11.6 5.7 5.6 5.7 5.6 5.2-5.7c5.9-6.6 5.2-7.8 5.5 9.2l.2 9 3.5-.1c1.9-.1 3.8-.2 4.3-.3 1-.1.9-42.9-.2-43.5-.9-.6-5.6 4-14.9 14.4l-4 4.4-4.8-5.4c-10.7-11.8-12.9-14-14-13.3zM128.9 125.5c-9.9 1.9-15.8 8.7-16.7 19-.6 8.2 1.7 14.4 7.1 19.1 11.3 9.6 28.9 6.1 34.8-7.1 7.9-17.9-5.9-34.9-25.2-31zm11.1 9.6c8.5 3.4 9.1 17.8.8 22.9-3.9 2.3-7.6 2.5-12.1.6-4.8-2-7.1-6.1-7-12.4 0-4.4.5-5.8 2.9-8.3 4.4-4.6 8.8-5.4 15.4-2.8zM158.6 127.2c2 6.4 19.1 41.8 20.2 41.8.7 0 2.6-3 4.3-6.8 6.6-14.4 8.3-18 12.5-27.1 2.4-5.1 4.4-9.4 4.4-9.6 0-.1-2.2-.3-5-.4l-5-.1-5.6 11.7-5.5 11.7-5.7-11.4-5.7-11.5-4.8-.3c-4.7-.3-4.8-.2-4.1 2zM205.3 146.8l.2 21.6 3-.1c1.7 0 3.6-.1 4.3-.2.9-.1 1.2-5.1 1.2-21.6v-21.4l-4.4.1-4.5.1.2 21.5zM221.2 146.8l.3 21.6h12l12 .1.3-4.3c.2-2.9-.1-4.2-1-4.3-.7-.1-4.1-.2-7.6-.3-6.9-.1-8.1-1-7.4-5.6.4-3 .5-3 7.2-3h6.7l-.2-3.8c-.2-2-.4-4-.4-4.3-.1-.3-3-.5-6.5-.4l-6.4.1-.4-3.2c-.6-5.1-.2-5.4 7.8-5.4h7.4v-8.9h-12l-12 .1.2 21.6zM68.9 179.8l-3.5.3v21.4l-.1 21.5h8.1c10.4 0 14.8-1.3 19.7-5.7 10.1-9.2 8.3-27.8-3.4-34.4-4.1-2.2-13.7-3.7-20.8-3.1zm15.6 10.4c5.5 3 7.8 10.6 5 16.7-2 4.6-6 7.1-11.4 7.1H74v-12.4c0-9.1.3-12.6 1.3-12.9 1.7-.6 6.8.3 9.2 1.5zM107.1 180c-.3.3-.6 10.1-.6 21.7V223h9.8c11.2 0 15.3-1.3 18-5.9.9-1.5 1.7-4.1 1.9-5.8.2-3.4-2-9.3-3.5-9.3-.5 0-.2-.9.7-1.9 4.4-4.8 2.4-15.6-3.3-18.6-3-1.5-21.3-2.7-23-1.5zm17.1 8.9c2.2.1 3.4 4.6 1.8 6.6-.8.9-3 1.5-6 1.5-4.7 0-4.7 0-4.6-3.3.2-4.4 1.1-5.4 4.3-5.1 1.5.1 3.6.2 4.5.3zm1.9 18.7c.6.8.8 2.5.5 3.9-.6 2.3-1.1 2.5-6.1 2.5-5.3 0-5.5-.1-5.4-2.8.3-5.4.6-5.7 5.3-5.4 2.5.2 5 1 5.7 1.8z"/></svg>